<svg preserveAspectRatio="none" overflow="visible" style="display: block;" width="24" height="24" viewBox="0 0 24 24" fill="none" xmlns="http://www.w3.org/2000/svg">
<g id="basil:figma-outline">
<path id="Vector" fill-rule="evenodd" clip-rule="evenodd" d="M12.75 15.373C13.4428 15.9287 14.3008 16.2379 15.1887 16.252C16.0767 16.2661 16.9441 15.9842 17.6541 15.4508C18.3641 14.9174 18.8764 14.1628 19.1101 13.306C19.3439 12.4493 19.2858 11.5391 18.945 10.719C18.66 10.0303 18.1883 9.43492 17.583 9C18.0991 8.62965 18.5196 8.1417 18.8097 7.57653C19.0997 7.01137 19.251 6.38525 19.251 5.75C19.251 4.68913 18.8296 3.67172 18.0794 2.92157C17.3293 2.17143 16.3119 1.75 15.251 1.75H8.751C7.90415 1.74976 7.07907 2.01829 6.39459 2.51692C5.71011 3.01556 5.20154 3.71857 4.94213 4.52471C4.68273 5.33084 4.68586 6.19851 4.95108 7.00276C5.21631 7.807 5.72994 8.50632 6.418 9C5.90185 9.37033 5.48132 9.85828 5.19124 10.4234C4.90115 10.9886 4.74984 11.6147 4.74984 12.25C4.74984 12.8853 4.90115 13.5114 5.19124 14.0766C5.48132 14.6417 5.90185 15.1297 6.418 15.5C5.86114 15.8996 5.41629 16.4356 5.12613 17.0565C4.83597 17.6774 4.71023 18.3625 4.76098 19.046C4.81172 19.7296 5.03725 20.3886 5.41592 20.9599C5.7946 21.5311 6.31371 21.9955 6.92348 22.3085C7.53324 22.6215 8.2132 22.7725 8.89812 22.7471C9.58305 22.7218 10.25 22.5208 10.8349 22.1636C11.4198 21.8063 11.9031 21.3048 12.2385 20.707C12.5738 20.1093 12.75 19.4354 12.75 18.75V15.373ZM8.75 3.25C8.08696 3.25 7.45107 3.51339 6.98223 3.98223C6.51339 4.45107 6.25 5.08696 6.25 5.75C6.25 6.41304 6.51339 7.04893 6.98223 7.51777C7.45107 7.98661 8.08696 8.25 8.75 8.25H11.25V3.25H8.75ZM11.25 16.25H8.75C8.25555 16.25 7.7722 16.3966 7.36107 16.6713C6.94995 16.946 6.62952 17.3365 6.4403 17.7933C6.25108 18.2501 6.20157 18.7528 6.29804 19.2377C6.3945 19.7227 6.6326 20.1681 6.98223 20.5178C7.33186 20.8674 7.77732 21.1055 8.26227 21.202C8.74723 21.2984 9.24989 21.2489 9.70671 21.0597C10.1635 20.8705 10.554 20.55 10.8287 20.1389C11.1034 19.7278 11.25 19.2445 11.25 18.75V16.25ZM8.75 9.75C8.08696 9.75 7.45107 10.0134 6.98223 10.4822C6.51339 10.9511 6.25 11.587 6.25 12.25C6.25 12.913 6.51339 13.5489 6.98223 14.0178C7.45107 14.4866 8.08696 14.75 8.75 14.75H11.25V9.75H8.75ZM12.75 12.25C12.75 12.9132 13.0134 13.5492 13.4824 14.0181C13.9513 14.4871 14.5873 14.7505 15.2505 14.7505C15.9137 14.7505 16.5497 14.4871 17.0186 14.0181C17.4876 13.5492 17.751 12.9132 17.751 12.25C17.751 11.5868 17.4876 10.9508 17.0186 10.4819C16.5497 10.0129 15.9137 9.7495 15.2505 9.7495C14.5873 9.7495 13.9513 10.0129 13.4824 10.4819C13.0134 10.9508 12.75 11.5868 12.75 12.25ZM15.25 8.25C15.913 8.25 16.5489 7.98661 17.0178 7.51777C17.4866 7.04893 17.75 6.41304 17.75 5.75C17.75 5.08696 17.4866 4.45107 17.0178 3.98223C16.5489 3.51339 15.913 3.25 15.25 3.25H12.75V8.25H15.25Z" fill="white"/>
</g>
</svg>
